<?xml version="1.0" encoding="UTF-8" standalone="no"?>
<svg width="219px" height="103px" viewBox="0 0 219 103" version="1.1" xmlns="http://www.w3.org/2000/svg" xmlns:xlink="http://www.w3.org/1999/xlink" xmlns:sketch="http://www.bohemiancoding.com/sketch/ns">
    <!-- Generator: Sketch 3.5.1 (25234) - http://www.bohemiancoding.com/sketch -->
    <title>Logo</title>
    <desc>Created with Sketch.</desc>
    <defs>
        <path id="path-1" d="M0,0.0438928649 L151.550985,0.0438928649 L151.550985,65.0120482 L0,65.0120482 L0,0.0438928649 Z"></path>
    </defs>
    <g id="Welcome" stroke="none" stroke-width="1" fill="none" fill-rule="evenodd" sketch:type="MSPage">
        <g id="178A50" sketch:type="MSArtboardGroup" transform="translate(-118.000000, -55.000000)">
            <g id="Top" sketch:type="MSLayerGroup">
                <g id="Logo" transform="translate(122.000000, 57.000000)">
                    <g id="Logo_Type" transform="translate(57.866667, 9.156627)">
                        <path d="M69.2393488,48.2571295 C68.5346876,48.1726041 67.6429155,48.094648 66.743349,48.0997089 C66.0046721,48.1038938 65.2709026,48.1351346 64.5397313,48.2409252 C64.3656108,48.2661319 64.1884592,48.2745991 64.012366,48.2798059 C63.557555,48.2932365 63.4513699,48.2182488 63.4499746,47.771145 C63.4461737,46.5845291 63.2598326,45.413485 63.1824189,44.2334871 C63.063532,42.4222982 62.8246516,40.623226 62.6328737,38.8195796 C62.5644091,38.1760771 62.4294525,37.5399712 62.3673869,36.8940356 C62.3519907,36.7336953 62.3117203,36.5740849 62.2669753,36.418854 C62.2282925,36.2845477 62.2186218,36.0942804 62.0386797,36.0874191 C61.8481527,36.0801685 61.8603253,36.2822119 61.804803,36.4077105 C61.4328424,37.2488769 61.0533761,38.0867829 60.6913267,38.9323288 C60.1256156,40.2536403 59.5612515,41.575779 59.0159402,42.905801 C58.5442897,44.0562125 58.0962145,45.2165997 57.6451082,46.3755271 C57.4400992,46.9020468 57.2433657,47.4323135 57.0617396,47.9673977 C56.9734043,48.2274945 56.8315195,48.3160102 56.5596336,48.2867645 C55.9380634,48.219806 55.3139913,48.2315334 54.6899673,48.2784433 C54.2876956,48.3087109 54.2287092,48.2709008 54.0788857,47.8912421 C53.8890323,47.4101724 53.72694,46.9177645 53.5315536,46.4391279 C53.0677936,45.3028769 52.5879639,44.1733413 52.1213171,43.0383068 C51.76533,42.1724689 51.4323889,41.2967528 51.0662499,40.4354405 C50.5733816,39.2761238 50.0574673,38.1268801 49.5542066,36.972089 C49.4832882,36.8094129 49.4307009,36.6387076 49.3642089,36.4739877 C49.3331279,36.3971022 49.2803481,36.3338907 49.1878752,36.3340367 C49.0954022,36.3341826 49.0330479,36.3973455 49.0103387,36.4738904 C48.9505344,36.6749606 48.8892867,36.8781719 48.8583501,37.0850329 C48.6452582,38.5107237 48.4511708,39.9387017 48.2781088,41.3704753 C48.136224,42.5446824 48.0064154,43.7204467 47.8704966,44.8952378 C47.7626275,45.8275475 47.7097995,46.7664266 47.6331557,47.7024833 C47.6265162,47.7832131 47.6292586,47.8650134 47.6190106,47.9452079 C47.5806165,48.2459373 47.5068113,48.3133824 47.2055285,48.2498303 C46.7641891,48.1567891 46.322994,48.1019473 45.8709736,48.101558 C45.4666811,48.1012174 45.0739838,48.1693924 44.6783035,48.2323607 C44.299126,48.2927012 44.2316236,48.2319714 44.3031193,47.8614125 C44.379715,47.4643815 44.4805596,47.0718275 44.5793835,46.6795168 C45.0701829,44.7311991 45.394608,42.747991 45.7762393,40.7772403 C46.0683807,39.2686299 46.3189526,37.7504818 46.5405124,36.2295113 C46.804219,34.4190523 47.0547428,32.6064521 47.198504,30.7794481 C47.2555659,30.053756 47.3496266,29.3304483 47.3791679,28.6014472 C47.3936498,28.2429564 47.4243459,28.2154625 47.7905811,28.289477 C49.0472894,28.5435398 50.3102042,28.4771652 51.5736964,28.3759002 C51.7640791,28.3606204 51.951623,28.3081144 52.1400812,28.2706449 C52.3592353,28.227044 52.5208465,28.2889903 52.5904658,28.5190143 C52.895309,29.5259711 53.2966666,30.4972102 53.6746413,31.4764298 C54.0409246,32.4254306 54.4391549,33.3620226 54.8353644,34.2989065 C55.3004716,35.3988559 55.7714004,36.4964208 56.2533952,37.5888762 C56.5794561,38.3278044 56.9296216,39.0558809 57.2675665,39.7894562 C57.3318934,39.9289693 57.4148881,40.0514995 57.5820322,40.0486285 C57.7423443,40.0459034 57.7701054,39.9026434 57.8208164,39.7828382 C58.3111828,38.6237649 58.8228633,37.473548 59.2927817,36.3061535 C60.0950158,34.3131644 60.9737974,32.3515621 61.6940953,30.3247531 C61.910507,29.7156544 62.1566525,29.1173587 62.3694076,28.5070435 C62.4432127,28.2952677 62.5479545,28.2196474 62.7594106,28.2711315 C63.8019203,28.525097 64.8627611,28.4459244 65.9193679,28.4472382 C66.3057143,28.4477248 66.6843627,28.3959974 67.0598836,28.3076764 C67.4098567,28.2253408 67.4341056,28.2342946 67.4821222,28.6136613 C67.5614122,29.2398889 67.6427711,29.8670897 67.6859284,30.4965289 C67.7790749,31.8554559 67.952185,33.2049912 68.1102358,34.5566676 C68.2682385,35.9078087 68.3980951,37.2625021 68.567693,38.6121347 C68.7939198,40.4119855 69.0233219,42.2121282 69.2962663,44.0051177 C69.4739471,45.1722202 69.6348847,46.3448702 69.9209157,47.4931893 C69.9326553,47.5402452 69.9385251,47.5888095 69.9478108,47.636498 C70.0780524,48.304526 70.0780524,48.304526 69.2393488,48.2571295" id="Fill-1" fill="#FEFEFE" sketch:type="MSShapeGroup"></path>
                        <path d="M82.0818201,14.380232 C82.0818201,15.4178943 82.0438109,16.4575032 82.0946181,17.4926351 C82.1310877,18.2348236 82.2018617,18.9773526 82.2347228,19.7209036 C82.2521397,20.1141389 82.1973391,20.1638712 81.8348086,20.1072289 C80.2571875,19.8606114 78.6731192,19.8630445 77.0864047,19.9710248 C76.7196883,19.9959883 76.3557626,20.0613896 75.9891424,20.0894188 C75.6383515,20.1162314 75.6014489,20.0593458 75.6269968,19.7194924 C75.6768899,19.0569145 75.7352027,18.393996 75.7543035,17.7302016 C75.7883674,16.5475273 75.8780979,15.3673348 75.8654924,14.1821788 C75.8530311,13.0152223 75.933957,11.8462706 75.8962365,10.6807739 C75.8484604,9.20471819 75.8793008,7.72948971 75.8586603,6.25411524 C75.8559179,6.05946839 75.8562547,5.86482154 75.8571207,5.67017469 C75.8645782,3.95027511 75.7361168,2.23616628 75.6387364,0.52084091 C75.6151611,0.104588619 75.6342138,0.0660972044 76.0452421,0.095294232 C76.7799738,0.14750825 77.5155715,0.196802565 78.2473683,0.278894874 C79.0841475,0.37281198 79.9103417,0.254758665 80.739952,0.200306208 C81.1387115,0.174126207 81.5354984,0.116851371 81.9342098,0.0899901053 C82.230537,0.0700388031 82.2736462,0.109065497 82.2575765,0.418797298 C82.213072,1.2756814 82.1495149,2.13159226 82.1015945,2.98837904 C82.068974,3.57110305 82.0415015,4.15436234 82.0268752,4.73781627 C82.0032518,5.67810655 81.9879519,6.61868879 81.977319,7.55922238 C81.9709681,8.11961066 82.0001726,8.14622862 82.5342255,8.1467639 C84.2341977,8.14836973 85.9341699,8.1473965 87.634094,8.1473965 C87.6822069,8.1473965 87.730416,8.14890501 87.7784326,8.14686122 C88.1787798,8.12987828 88.2599463,8.05732367 88.2673556,7.66014677 C88.2761122,7.1899773 88.2859753,6.71868861 88.2660085,6.24915175 C88.1833987,4.30633287 88.2079362,2.35840451 87.9971056,0.421571016 C87.9585672,0.0675570558 87.9826236,0.056170215 88.3638701,0.0762675023 C89.0836387,0.114223638 89.79773,0.21456409 90.5166325,0.267751342 C91.6603237,0.35237406 92.789148,0.241230708 93.9203297,0.126681037 C94.7131818,0.0463892107 94.7281449,0.0738830784 94.617774,0.889112752 C94.5462301,1.41753029 94.5322293,1.95485292 94.5093757,2.48896388 C94.3747077,5.63338643 94.3889973,8.78009609 94.4407186,11.9251512 C94.4654967,13.4324478 94.4479355,14.9416422 94.5243869,16.4475275 C94.5777922,17.4993991 94.5679772,18.5533145 94.6581407,19.6042615 C94.7010574,20.1045039 94.6107014,20.1681534 94.1141765,20.1056231 C93.2866351,20.0014384 92.4569286,19.9343339 91.6236617,19.9091758 C90.5312107,19.8761831 89.4457843,19.9515115 88.3643031,20.1094674 C87.9809397,20.165477 87.9292665,20.113555 87.9790633,19.7319498 C88.1958599,18.0710769 88.1891241,16.4008123 88.2115928,14.7307423 C88.226171,13.6449048 88.2870338,12.5597 88.2644689,11.4731326 C88.2614859,11.3272448 88.2614378,11.180773 88.2473888,11.0358584 C88.2275182,10.8311386 88.115319,10.7104576 87.9053544,10.6999466 C87.8093692,10.6951291 87.7130472,10.6959564 87.6168696,10.6959564 C85.9168974,10.6954698 84.2169733,10.6946425 82.5170011,10.6953724 C82.037027,10.6956157 81.9926189,10.7320147 81.9895877,11.2175613 C81.9831406,12.2717686 81.9876151,13.3260246 81.9876151,14.380232 L82.0818201,14.380232" id="Fill-3" fill="#FEFEFE" sketch:type="MSShapeGroup"></path>
                        <path d="M44.2734193,5.70525978 L44.2743334,5.70525978 C44.2743334,6.69440642 44.2704844,7.68360171 44.2761617,8.67269969 C44.2785192,9.0907038 44.3442895,9.15848956 44.745166,9.17046035 C45.0975447,9.18097128 45.4515592,9.19007102 45.8030238,9.16880585 C46.9850609,9.09717581 47.8437314,8.56394076 48.2224278,7.37863876 C48.5756244,6.27309331 48.6574644,5.14000533 48.3035942,4.03616304 C48.0338253,3.19475336 47.4943357,2.54438957 46.5758128,2.29436569 C46.0565786,2.15305208 45.538403,2.10633683 45.0084878,2.10988914 C44.3751299,2.11412271 44.2753919,2.20979163 44.2739966,2.83509464 C44.2718315,3.79183258 44.2734193,4.74852185 44.2734193,5.70525978 M44.3150369,14.5185772 C44.3150369,14.9239293 44.3176831,15.32933 44.3145077,15.7346821 C44.30527,16.9184269 44.4331059,18.096381 44.4576435,19.2786173 C44.4610114,19.4407095 44.4636095,19.6029963 44.4595199,19.7650398 C44.4503303,20.1288347 44.428054,20.1538469 44.0664858,20.1133603 C43.1275149,20.008251 42.1921525,19.8882999 41.2423563,19.8925335 C40.3578492,19.8964751 39.4841194,19.9896622 38.6088499,20.0894674 C38.529175,20.0985672 38.4496926,20.109808 38.3698733,20.1158421 C37.9376753,20.1484454 37.9382046,20.1433846 37.9326235,19.7159401 C37.922616,18.9515619 38.0825913,18.2017336 38.1144902,17.4411997 C38.2260158,14.7828103 38.1958971,12.1229124 38.1834359,9.4635985 C38.1737171,7.38851709 38.1341683,5.31338701 38.0887498,3.23869489 C38.071381,2.44570362 37.9997891,1.65397755 37.9553809,0.861570222 C37.9463357,0.699770027 37.9519168,0.537191245 37.9444593,0.375293727 C37.9339225,0.146194384 38.024904,0.0527638951 38.2612344,0.0793331902 C38.6272291,0.120452337 38.9979388,0.12166888 39.3627787,0.169600667 C40.8808361,0.369065028 42.3958143,0.309649077 43.9160849,0.180549553 C45.6908727,0.029746905 47.4717707,-0.0256301241 49.2467028,0.168238139 C50.3653271,0.290379038 51.4642252,0.536607305 52.4576117,1.10400287 C53.8013562,1.87159273 54.6129242,3.01241792 54.7353233,4.5970866 C54.8017191,5.45635512 54.8001314,6.31289859 54.5357992,7.14958808 C54.2557342,8.03610716 53.7198049,8.72282125 52.960728,9.23133615 C52.3573926,9.63552033 51.7174432,9.96700392 51.000369,10.120337 C50.9226186,10.1369793 50.8450125,10.1622834 50.7726507,10.1954707 C50.4591953,10.3392174 50.4229663,10.4465651 50.6063245,10.7562969 C51.1657329,11.7014533 51.7315884,12.6427655 52.2935949,13.5863648 C53.5339448,15.6688428 54.8156237,17.7245568 56.1707228,19.733069 C56.2370705,19.8313657 56.3930043,19.9301003 56.2837881,20.06392 C56.1970887,20.1702459 56.0419728,20.1173992 55.9166387,20.1024114 C54.7856975,19.9669372 53.6519657,19.8931661 52.5120274,19.9028497 C51.5807546,19.9107816 50.6556402,19.9825576 49.733124,20.1049418 C49.2132643,20.1739441 49.1840117,20.1656717 48.9383474,19.694091 C48.2369579,18.3476214 47.552023,16.9923927 46.8468326,15.6480156 C46.1788334,14.3744412 45.4721996,13.122424 44.7315019,11.8903581 C44.6983041,11.8351271 44.6584666,11.783643 44.6186772,11.7328402 C44.5602201,11.6582417 44.5112412,11.5522079 44.398609,11.5724511 C44.2512392,11.5989718 44.2589854,11.7352246 44.258408,11.8440322 C44.2533081,12.7357581 44.2381525,13.6277272 44.3150369,14.5185772" id="Fill-5" fill="#FEFEFE" sketch:type="MSShapeGroup"></path>
                        <path d="M35.9418763,38.4175852 C35.9418763,38.1097999 35.9443301,37.8019659 35.9414433,37.4941805 C35.928934,36.1429908 35.7629926,34.818273 35.3450361,33.5261098 C35.0739682,32.6880578 34.620793,31.9672805 34.0152925,31.3595444 C33.0360511,30.3767238 31.8061898,30.1947777 30.4944885,30.3662615 C29.4441845,30.5035362 28.6582125,31.0874281 28.0237,31.9033877 C27.458518,32.6301991 27.1583899,33.4894676 26.9334141,34.3679575 C26.6018683,35.6628457 26.6035041,36.9967605 26.5530818,38.3232788 C26.5375414,38.7313073 26.6295813,39.1301387 26.6235191,39.5350528 C26.6048994,40.7787975 26.8064442,41.9894522 27.1804737,43.1686715 C27.7210219,44.872756 28.9239881,46.3312936 31.1218323,46.4626802 C32.7832661,46.5619501 33.9668909,45.8201996 34.7990512,44.4506644 C35.4105658,43.4442915 35.6537283,42.289695 35.8272233,41.1335414 C35.9619394,40.2357328 35.9501036,39.3247855 35.9418763,38.4175852 M31.1777395,48.5599027 C29.5100991,48.5773722 27.8871075,48.3146963 26.3237759,47.7301232 C23.9223661,46.8321686 22.0809901,45.2615145 20.9592865,42.9201075 C20.3915065,41.7350002 20.0669852,40.4605012 20.0376844,39.123764 C20.0249345,38.5404074 20.0072771,37.9571967 20.044757,37.3755433 C20.2544329,34.1207073 21.6474931,31.5476706 24.3860298,29.7749731 C25.7996823,28.8599382 27.368162,28.3710826 29.0287298,28.1739054 C29.6173427,28.1040272 30.2072065,28.0453898 30.7965411,27.9818376 C31.310964,27.9263146 31.8216341,28.0067037 32.3311975,28.0453411 C34.5344304,28.2122022 36.6252235,28.7570674 38.488587,30.0145347 C40.2609691,31.2105422 41.4520033,32.8556001 42.104462,34.8964237 C42.3462773,35.6527727 42.4961008,36.4371022 42.5070224,37.2360302 C42.5201091,38.1918435 42.5760163,39.152961 42.436922,40.1017184 C42.1404985,42.1232233 41.3643416,43.9214196 39.9400081,45.4057478 C38.8459694,46.5459404 37.5390313,47.3151361 36.0491199,47.810707 C34.462213,48.3386379 32.8346506,48.5328468 31.1777395,48.5599027" id="Fill-7" fill="#FEFEFE" sketch:type="MSShapeGroup"></path>
                        <path d="M115.691882,39.5342207 C115.691208,41.188135 115.833574,42.8353339 115.913778,44.4854526 C115.961747,45.4725555 115.972813,46.4614101 116.084868,47.4447173 C116.099494,47.5730869 116.094731,47.7038896 116.095501,47.8335731 C116.098051,48.2660297 116.073754,48.2953241 115.668114,48.2220395 C115.192951,48.1361516 114.716634,48.102867 114.233966,48.1010665 C113.828037,48.0995094 113.441739,48.2116746 113.044567,48.2551295 C112.653746,48.2979032 112.596203,48.236784 112.631566,47.8353736 C112.783699,46.1084181 112.930395,44.3815112 113.046011,42.6510034 C113.228936,39.9136847 113.194727,37.1761227 113.171008,34.4372469 C113.168073,34.0967122 113.161722,33.7560802 113.165956,33.4156429 C113.185971,31.794186 113.074157,30.1774492 113.002372,28.5592526 C112.988275,28.2422216 112.992076,28.2190099 113.316164,28.2811023 C114.076203,28.4267468 114.841198,28.4667954 115.611822,28.4548733 C116.045656,28.4481579 116.47362,28.4243624 116.895618,28.2985232 C117.182082,28.2131219 117.416921,28.2445087 117.641897,28.5406152 C119.694681,31.2423135 121.949635,33.7687809 124.232687,36.2711609 C125.351985,37.49802 126.43438,38.7592829 127.533375,40.0050227 C127.576051,40.0533925 127.612761,40.1084289 127.660681,40.1505699 C127.826574,40.2964577 127.976205,40.2519809 127.988955,40.0311541 C128.009451,39.6757776 128.001609,39.3180167 127.99165,38.961667 C127.949936,37.4712074 127.796793,35.9865872 127.76855,34.4949597 C127.736363,32.7929676 127.685459,31.0913648 127.638405,29.3896648 C127.631284,29.1310764 127.603475,28.8728774 127.580573,28.614873 C127.55185,28.290786 127.610307,28.217988 127.919961,28.3084015 C128.629915,28.5156517 129.352426,28.434922 130.071184,28.4365764 C130.277829,28.4370631 130.483993,28.3927809 130.680341,28.3113212 C130.85884,28.2372581 130.960936,28.3059197 130.960455,28.5033403 C130.959829,28.7627072 130.971857,29.0242153 130.943856,29.2809545 C130.778588,30.7961342 130.760161,32.3215816 130.628909,33.8382699 C130.467875,35.6989964 130.506221,37.5631293 130.453922,39.4258024 C130.3984,41.403609 130.388681,43.3808317 130.407397,45.3580544 C130.415191,46.1834058 130.458974,47.009633 130.467442,47.8360062 C130.472109,48.2909445 130.463978,48.2986817 130.005462,48.2403364 C129.513027,48.1777087 129.023526,48.1008719 128.523345,48.1003853 C127.927996,48.09985 127.339047,48.1351297 126.756063,48.2584872 C126.397959,48.3342535 126.134348,48.247149 125.882766,47.9336216 C123.428288,44.8743084 120.847417,41.9229268 118.315477,38.9297935 C117.628714,38.1179702 116.896051,37.3459521 116.183499,36.5565618 C116.140534,36.5089706 116.092614,36.4638126 116.040315,36.4274136 C115.855081,36.2985087 115.742737,36.3423529 115.707278,36.567462 C115.687263,36.6944691 115.692604,36.8261477 115.692459,36.9557338 C115.691353,37.8152457 115.691882,38.6747088 115.691882,39.5342207" id="Fill-9" fill="#FEFEFE" sketch:type="MSShapeGroup"></path>
                        <path d="M79.5507606,33.9803815 L79.5515785,33.9803815 C79.5515785,35.0180439 79.5469115,36.0557063 79.5537435,37.09332 C79.5567265,37.5449493 79.6521825,37.6403263 80.0864012,37.656336 C80.3745492,37.6669442 80.6666425,37.6867009 80.9513263,37.6533189 C81.7534161,37.5591585 82.4798724,37.3013974 82.9718265,36.5917637 C83.390601,35.9877745 83.5652026,35.3072891 83.5900288,34.582035 C83.6027788,34.2095295 83.5805987,33.8357103 83.5970533,33.4635455 C83.6204362,32.9340087 83.5205057,32.4298247 83.3244939,31.9445701 C83.0375968,31.2344984 82.5610388,30.7091952 81.818176,30.4872491 C81.2936494,30.3305584 80.751706,30.2875901 80.2027862,30.3097312 C79.6548287,30.3318236 79.5544171,30.4152785 79.5520115,30.9647179 C79.5476332,31.9699229 79.5507606,32.9751765 79.5507606,33.9803815 M79.5420521,42.3403178 C79.5012524,44.0435264 79.6499212,45.8708224 79.7067425,47.7009407 C79.7087632,47.7657581 79.7168462,47.8303809 79.7177603,47.8951496 C79.7229084,48.2523753 79.6839851,48.3050272 79.3421431,48.2842487 C78.8785756,48.2560735 78.4167882,48.2000153 77.9535574,48.1647842 C76.9947641,48.0918403 76.0364037,48.0683367 75.0766962,48.1681418 C74.535282,48.2244434 73.9911254,48.258458 73.4473537,48.2853192 C73.106041,48.3021562 73.0679837,48.2522779 73.1012297,47.8926192 C73.4932053,43.6557899 73.4167539,39.4072817 73.3910135,35.1613526 C73.3800438,33.3470493 73.2826633,31.533184 73.2133808,29.719562 C73.1998611,29.3641855 73.1428473,29.0109014 73.1492463,28.6528972 C73.1565114,28.2414624 73.1569925,28.2198566 73.542521,28.2762556 C74.5287387,28.4206349 75.5193828,28.4564012 76.5138759,28.4520217 C77.6834518,28.4468635 78.8504777,28.4250631 80.0177922,28.3172774 C81.3116918,28.1977642 82.6158875,28.1766937 83.9086804,28.2981047 C85.2847086,28.4272529 86.6430313,28.700683 87.8228552,29.4951341 C89.101503,30.3560572 89.8276706,31.5633056 89.9051323,33.1344463 C89.925869,33.5550295 89.9318831,33.9786297 89.9085483,34.3988236 C89.8068377,36.2334675 88.9631785,37.6244626 87.4163495,38.5789134 C86.1048407,39.3881577 84.6402367,39.6507849 83.1413282,39.7154563 C82.1030042,39.7602738 81.0585218,39.7889355 80.0213045,39.6226098 C79.6220638,39.5586196 79.5486436,39.6397874 79.544121,40.0700056 C79.5365673,40.7833863 79.5420521,41.4969617 79.5420521,42.3403178" id="Fill-11" fill="#FEFEFE" sketch:type="MSShapeGroup"></path>
                        <path d="M98.7953139,41.8583771 L98.7953139,41.8553114 C99.2763945,41.8553114 99.757427,41.8561873 100.238508,41.8549221 C100.478976,41.8542895 100.720647,41.8639245 100.959527,41.8427566 C101.202642,41.8212482 101.263023,41.7268931 101.224196,41.4877208 C101.211302,41.4082076 101.187582,41.3293756 101.159677,41.253658 C100.785695,40.2384286 100.40849,39.2244159 100.035327,38.2088946 C99.7346215,37.3905992 99.4371877,36.571136 99.1416303,35.7509428 C99.1045353,35.6481206 99.1164673,35.5056878 98.964575,35.5039846 C98.8356325,35.5025248 98.7669273,35.6163932 98.7232889,35.7164417 C98.5942502,36.0121589 98.4783944,36.3139102 98.3622499,36.6152235 C97.9617102,37.6545404 97.5611224,38.6938572 97.1648166,39.7348772 C96.9523983,40.2927838 96.7393064,40.8508363 96.5442087,41.4150689 C96.407087,41.8116618 96.4450962,41.8544355 96.8710875,41.8572578 C97.5124803,41.8615401 98.1539211,41.8583771 98.7953139,41.8583771 M110.107036,48.2714069 C108.84056,48.0568574 107.508892,48.096468 106.1804,48.1203609 C105.461882,48.1333049 104.745144,48.2306283 104.026771,48.2763217 C103.489495,48.3104822 103.463947,48.3047888 103.321821,47.7781231 C103.073078,46.8562269 102.781754,45.9485887 102.48663,45.0416803 C102.456656,44.9494664 102.43029,44.8556466 102.393772,44.766109 C102.284941,44.4991995 102.104517,44.3823141 101.800011,44.3863044 C100.597863,44.4020221 99.3953776,44.3917545 98.1929888,44.3917058 C97.4876059,44.3917058 96.7810684,44.4173992 96.0772732,44.3840659 C95.6815929,44.3653312 95.4806736,44.5283966 95.3696772,44.8802208 C95.1703937,45.5120931 94.9521537,46.138272 94.7700945,46.7750592 C94.6590981,47.163477 94.515818,47.5415298 94.4330638,47.9403126 C94.3728746,48.230239 94.2416708,48.295835 93.9326899,48.260312 C93.5675132,48.2182683 93.2058006,48.1348134 92.8399503,48.1108719 C92.3116229,48.076322 91.7851718,48.1167113 91.2621367,48.221188 C90.8526962,48.3029396 90.8198832,48.2597767 90.9808689,47.8895584 C91.604941,46.4544272 92.2410894,45.0246487 92.8646322,43.5892742 C93.4689299,42.1981331 94.0536938,40.7987683 94.6106004,39.3870433 C95.1381099,38.0499168 95.7099795,36.7306491 96.239558,35.3943498 C96.7156349,34.1930381 97.1631327,32.9800476 97.6190022,31.7706094 C98.0234871,30.6973266 98.3897704,29.6091534 98.8389041,28.5533889 C98.978672,28.224825 98.9866107,28.2312484 99.3395186,28.3017592 C100.357202,28.5049705 101.374789,28.5190824 102.393243,28.3017592 C102.801865,28.2145574 102.820918,28.2468688 102.948129,28.6706636 C103.120036,29.243412 103.308542,29.8115375 103.505131,30.376208 C103.898454,31.5058896 104.291681,32.6358146 104.704297,33.758343 C105.171857,35.0303115 105.653949,36.2969272 106.141957,37.5610125 C106.840412,39.370255 107.542475,41.1781836 108.257047,42.9809541 C108.846526,44.4681534 109.471416,45.9405108 110.14211,47.3925763 C110.223276,47.5683424 110.295301,47.7483908 110.376708,47.9240109 C110.521624,48.2364677 110.490207,48.2894603 110.107036,48.2714069" id="Fill-13" fill="#FEFEFE" sketch:type="MSShapeGroup"></path>
                        <path d="M24.0032871,13.6525009 C24.7575526,13.6525009 25.381721,13.657951 26.0057931,13.6503598 C26.3487416,13.6461749 26.4425136,13.511236 26.3265135,13.1946429 C26.0493352,12.4380506 25.7605617,11.6858378 25.4824212,10.9296348 C25.1875855,10.128225 24.9113695,9.31961336 24.6034952,8.52341042 C24.4641603,8.1631191 24.3722166,7.78214655 24.1734623,7.44579679 C24.1314598,7.37470203 24.0827215,7.30511578 23.992606,7.31003061 C23.8986897,7.31514009 23.8652513,7.39611318 23.8369128,7.47299869 C23.7532445,7.69971361 23.6734252,7.92793704 23.5873513,8.15372739 C23.2028813,9.16224138 22.8170161,10.1702688 22.4311027,11.1782475 C22.1548386,11.899706 21.8725122,12.6188775 21.6038018,13.3432071 C21.5156109,13.5809195 21.6314667,13.7410166 21.8806914,13.7053475 C22.6307711,13.5978538 23.3831603,13.6902138 24.0032871,13.6525009 M34.8640469,20.0557497 C33.9127591,19.9205675 32.9577186,19.8832439 31.9966158,19.8972585 C31.0658722,19.9108838 30.1419607,19.9909323 29.218001,20.0876718 C29.1065716,20.0993506 28.995046,20.1113701 28.8832798,20.1182314 C28.656187,20.1321973 28.546201,20.0311269 28.4881287,19.7965288 C28.2198032,18.7127838 27.8833018,17.6497687 27.5118223,16.5970698 C27.4073211,16.300866 27.2386374,16.1911338 26.9444271,16.1918637 C25.0051415,16.1967299 23.065904,16.196292 21.1266183,16.1948808 C20.7962272,16.1946375 20.5985795,16.3306469 20.4975906,16.6677266 C20.187022,17.7043671 19.8508092,18.7331244 19.5283567,19.7661152 C19.405284,20.1602751 19.4053321,20.1802264 18.9887227,20.0719054 C18.2471109,19.879059 17.503767,19.8695213 16.7478175,19.9543874 C16.505088,19.9816379 16.1978873,20.2335596 16.032812,19.997307 C15.8828923,19.7827088 16.1752743,19.5302032 16.2718368,19.3012012 C16.7861634,18.0813007 17.3248833,16.8717165 17.8672597,15.6641275 C18.5355476,14.1763443 19.1448971,12.6634516 19.7633881,11.1544519 C20.2472112,9.97396741 20.7216522,8.78958999 21.1979216,7.60599115 C21.8796329,5.91188228 22.5196785,4.20166639 23.1402865,2.48381061 C23.3927347,1.78507707 23.6720781,1.09636785 23.9277499,0.3988022 C24.0158446,0.158510663 24.173318,0.0675619219 24.4088305,0.103474266 C24.6778296,0.14449609 24.9445674,0.200992338 25.2128448,0.247415612 C25.9520029,0.375249931 26.6803837,0.281965428 27.4060221,0.134909732 C27.8697339,0.0409439651 27.9305005,0.0565643749 28.0753203,0.508777671 C28.4156226,1.5710142 28.7707919,2.62765463 29.1500657,3.67616855 C29.4575069,4.52628867 29.7747151,5.37314846 30.0621414,6.23022721 C30.4836102,7.4869646 30.9928369,8.70920084 31.4672779,9.94481905 C32.1043405,11.6038915 32.7870622,13.2449591 33.4297059,14.9018417 C33.9381627,16.2127883 34.5037296,17.4983821 35.061887,18.7874795 C35.2091124,19.1275762 35.3789028,19.4575999 35.5310357,19.7956042 C35.6335161,20.0232437 35.5942079,20.0819784 35.3437804,20.0818324 C35.1838532,20.0816864 35.023926,20.0649954 34.8640469,20.0557497" id="Fill-15" fill="#FEFEFE" sketch:type="MSShapeGroup"></path>
                        <path d="M7.31826655,14.1157945 C7.31826655,15.0236761 7.31571657,15.9316063 7.31927692,16.8394879 C7.32120144,17.3253264 7.36334832,17.3765185 7.83918465,17.3753507 C9.49012983,17.3712144 11.141075,17.3632826 12.7918278,17.3431853 C13.1910203,17.3383191 13.5897317,17.2835747 13.9882987,17.247711 C14.3468359,17.2154483 14.3654074,17.2299495 14.3691121,17.6022116 C14.3698819,17.6831847 14.3726244,17.765277 14.3618952,17.8451308 C14.2813542,18.4434753 14.3047852,19.0405058 14.3605961,19.6397261 C14.4067364,20.1348104 14.3948525,20.1442021 13.9210369,20.1233262 C12.8813177,20.0775356 11.8422721,20.0160758 10.8024566,19.9733508 C10.0181205,19.9411368 9.23219671,19.9360273 8.44786063,19.9273169 C6.95804546,19.9107719 5.46596899,19.9241052 3.97798211,19.9932535 C3.14750578,20.0318422 2.31520116,20.0660514 1.48477294,20.1237642 C1.0627268,20.1531072 1.04834105,20.1280951 1.09457752,19.6987041 C1.23371996,18.4057138 1.16265724,17.1079059 1.19061082,15.8123851 C1.22659925,14.1440669 1.28144793,12.4760894 1.25844998,10.8068467 C1.22097005,8.08446717 1.19792398,5.36179568 1.14779036,2.63970813 C1.13412631,1.89659512 1.04160525,1.1551366 0.992674455,0.412461543 C0.969868952,0.0664767657 0.987333926,0.0413186603 1.32417216,0.0623891819 C2.33059728,0.125308776 3.34111199,0.112072791 4.3445541,0.230612723 C4.48720878,0.247449675 4.63260588,0.244140679 4.77670394,0.243994694 C6.74836955,0.242145549 8.72090119,0.274894881 10.6912196,0.222437555 C11.77833,0.193483836 12.8681829,0.165892645 13.954764,0.0879852428 C14.3717583,0.0580582894 14.40741,0.0896884027 14.3651188,0.507935824 C14.2963173,1.18851854 14.2971353,1.86545162 14.3677169,2.54588835 C14.4043308,2.89878309 14.3594896,2.94252997 13.9987392,2.92890469 C13.0871446,2.89440354 12.1761754,2.8433574 11.2649176,2.79936721 C10.0955823,2.74287097 8.92547714,2.76545 7.75585315,2.77839402 C7.41939982,2.78214097 7.32278916,2.89138651 7.321442,3.2264224 C7.31518733,4.79897431 7.3150911,6.37162354 7.32452123,7.94412679 C7.32673442,8.3058293 7.42820447,8.4040773 7.79516137,8.40651039 C8.59595206,8.41181451 9.39683897,8.43517213 10.1979183,8.37877321 C10.7570381,8.33940588 11.3191408,8.34475867 11.8794152,8.31940592 C12.5189796,8.2904522 13.1581592,8.2511822 13.7973387,8.21327472 C14.0954461,8.19561052 14.1190695,8.2148319 14.1267195,8.52845664 C14.1274893,8.56081668 14.1283072,8.59376066 14.1235921,8.62563408 C14.0230362,9.30363772 14.0735066,9.98091144 14.1185403,10.6599856 C14.1475042,11.0966758 14.0968414,11.1478193 13.6638255,11.0875274 C12.631227,10.9437321 11.5951162,10.8481118 10.5548196,10.7894258 C9.65934281,10.7388663 8.76473202,10.6673822 7.86670521,10.6957033 C7.43109125,10.7094746 7.32755234,10.7997907 7.32283728,11.246262 C7.31273357,12.2026593 7.31975805,13.1592512 7.31975805,14.1157945 L7.31826655,14.1157945 Z" id="Fill-17" fill="#FEFEFE" sketch:type="MSShapeGroup"></path>
                        <path d="M10.4797972,48.5607007 C9.44181007,48.6135474 8.04668104,48.4003117 6.6963451,47.9684877 C4.38043187,47.2278564 2.52693149,45.8545742 1.2993796,43.6966219 C0.459809933,42.2206635 0.0570570582,40.6208124 0.00639420106,38.9211561 C-0.0213188148,37.9920093 0.0400251005,37.0668529 0.212172966,36.1612097 C0.500320974,34.6454947 1.12939681,33.270996 2.07231293,32.0480785 C3.32469106,30.4238478 4.95196471,29.3597621 6.87137974,28.7167949 C8.06597431,28.3166497 9.28996584,28.1166987 10.5441723,28.0326599 C12.2454916,27.9186455 13.8942236,28.1879394 15.5313123,28.608328 C16.1842521,28.7759676 16.8161185,29.0097871 17.4598207,29.204142 C17.8857158,29.3327549 17.9955575,29.4088131 17.8529991,29.9451625 C17.6073347,30.8694431 17.4150276,31.8044779 17.2483165,32.7456928 C17.2341713,32.8254493 17.2242119,32.9060818 17.2077573,32.9853517 C17.1707585,33.1639402 17.2888756,33.4232585 17.0491773,33.4982462 C16.7753188,33.5839881 16.4772595,33.5768835 16.1967615,33.4857401 C16.0823972,33.4486112 16.0455908,33.3281248 16.0096024,33.2181007 C15.5496433,31.8127991 14.5614049,31.0060852 13.1661315,30.6751855 C11.6186771,30.3081789 10.1729814,30.5191761 8.88634693,31.5117291 C7.94727984,32.236156 7.35650186,33.2189766 7.02255039,34.3404344 C6.25895096,36.9048093 6.3106723,39.4904981 6.96274609,42.068547 C7.13325812,42.7426577 7.40047702,43.3897125 7.79610919,43.970636 C8.63933544,45.2089306 9.79462178,45.9038199 11.2837634,46.0158878 C12.1707723,46.0826517 13.0559049,46.0303403 13.9038462,45.7725792 C14.5466342,45.5772025 15.1193217,45.1966192 15.6827235,44.8237732 C16.0855245,44.5572043 16.4592172,44.2508788 16.8253562,43.934529 C17.1626274,43.6431427 17.5954027,43.6870842 17.8732065,44.0247965 C17.9575002,44.1272294 17.9401796,44.2352098 17.9013525,44.3451852 C17.593815,45.2163759 17.3721109,46.1118974 17.1643595,47.0111658 C17.1097514,47.2475644 16.939528,47.3639146 16.7365398,47.4299485 C16.142442,47.6231842 15.551231,47.8327215 14.9456343,47.9803611 C14.4645055,48.0976845 13.9866485,48.2303364 13.4976292,48.3248374 C12.625006,48.4934502 11.749063,48.5391436 10.4797972,48.5607007" id="Fill-19" fill="#FEFEFE" sketch:type="MSShapeGroup"></path>
                        <path d="M145.279,48.2629592 C144.403827,48.1161955 143.396728,48.0994072 142.386502,48.0989692 C141.727163,48.0986772 141.075523,48.1602343 140.422535,48.2292853 C140.247211,48.247874 140.071647,48.2673387 139.895699,48.2755139 C139.284136,48.3038837 139.280912,48.2884579 139.347645,47.6626683 C139.440551,46.791429 139.455899,45.9157128 139.470766,45.0399966 C139.4941,43.6623349 139.511277,42.2842352 139.563672,40.9075953 C139.588017,40.2692996 139.442957,39.6964539 139.157791,39.1351898 C137.825546,36.5132967 136.488104,33.8946153 135.018497,31.3473693 C134.493778,30.4379305 133.986523,29.5181755 133.468877,28.6045032 C133.421919,28.5216323 133.332525,28.4469852 133.379291,28.3454282 C133.44049,28.2124357 133.569481,28.2549174 133.674367,28.2710731 C134.723517,28.4322894 135.780123,28.4650873 136.838414,28.4545764 C137.927208,28.4437249 139.018264,28.4892236 140.09936,28.2889319 C140.567932,28.2021681 140.564564,28.2255744 140.736856,28.6899531 C141.254647,30.0859117 141.90316,31.4224543 142.555523,32.7571964 C143.045023,33.7588491 143.52442,34.7655626 144.018443,35.7648795 C144.114476,35.9591371 144.160568,36.2703287 144.40782,36.2700854 C144.660461,36.2698421 144.694862,35.9483342 144.783389,35.7570937 C145.523269,34.1589944 146.273734,32.5660532 146.935959,30.9315063 C147.245229,30.1681986 147.528902,29.3953533 147.836681,28.631851 C147.997233,28.2335063 148.028988,28.1851365 148.429864,28.2941874 C149.076309,28.4699535 149.729152,28.4673744 150.387048,28.4495156 C150.693238,28.4412431 150.994569,28.4079585 151.288491,28.3180316 C151.365519,28.2944307 151.454432,28.2608055 151.514717,28.3277153 C151.599829,28.4221191 151.514621,28.5047953 151.466941,28.5846978 C151.110617,29.1810471 150.743901,29.7713137 150.399172,30.374427 C149.509325,31.9309205 148.658064,33.5090199 147.836007,35.1032262 C147.192112,36.3519831 146.548458,37.6009346 145.89624,38.8452633 C145.666886,39.2827807 145.541889,39.7270135 145.550597,40.2345065 C145.578695,41.8718758 145.522451,43.5108996 145.610257,45.1471497 C145.658033,46.0364912 145.749303,46.9235942 145.82869,47.8109892 C145.868335,48.2540054 145.845529,48.2864628 145.279,48.2629592" id="Fill-21" fill="#FEFEFE" sketch:type="MSShapeGroup"></path>
                        <path d="M68.0428008,8.47610637 C68.0740261,11.036783 68.0698402,13.5986275 68.1526906,16.1575524 C68.1893526,17.2890832 68.1711178,18.4251882 68.2888982,19.5548698 C68.3449497,20.0930197 68.2708558,20.1539442 67.7466179,20.1075696 C67.1884124,20.0581779 66.6303511,20.0066452 66.0720012,19.9589567 C64.837473,19.8535554 63.6074192,19.8901004 62.3823692,20.0808056 C62.2875387,20.0955501 62.1917941,20.1142849 62.0965306,20.1141389 C61.8158882,20.1137983 61.7732602,20.0648446 61.7982308,19.7680568 C61.8783387,18.8148225 61.8768472,17.8575493 61.9311185,16.9038284 C62.1164493,13.6491384 62.1084145,10.3917233 62.0481291,7.1359628 C62.0238802,5.82652477 62.0503423,4.5119286 61.9261629,3.20399909 C61.8927726,2.85222357 61.8406182,2.76093419 61.4900197,2.77524074 C60.2747366,2.82492435 59.0554601,2.81280758 57.8470091,2.98526469 C57.593358,3.021469 57.3402843,3.06336674 57.0855747,3.08974139 C56.8914874,3.10979001 56.7741401,3.0293522 56.806087,2.80886598 C56.9209324,2.01748055 56.8931232,1.22745764 56.8076266,0.434709678 C56.7706278,0.091741927 56.8372642,0.0405011435 57.1896429,0.0644913679 C61.2876088,0.343809599 65.3910597,0.225756284 69.4924898,0.229405912 C70.579937,0.230427808 71.6674805,0.129454754 72.7549758,0.0749536361 C72.8510091,0.0701361265 72.9468499,0.0589925943 73.0428832,0.0571434492 C73.2246536,0.0536398059 73.3096691,0.155099477 73.2978814,0.330378966 C73.2892692,0.458991873 73.2585732,0.586096267 73.2381252,0.713930586 C73.1322288,1.37602185 73.135308,2.03465813 73.2668967,2.6950949 C73.3404132,3.06395068 73.2701203,3.14322061 72.8956578,3.07577547 C71.6121025,2.84453502 70.3115634,2.84949851 69.0172309,2.77494877 C68.17973,2.72672501 68.1595708,2.7703259 68.1335417,3.6147526 C68.0836005,5.23479834 68.0226896,6.85460078 68.0428008,8.47610637" id="Fill-23" fill="#FEFEFE" sketch:type="MSShapeGroup"></path>
                        <path d="M6.21641436,53.5478012 C7.00147214,53.5841515 7.87265196,53.5613778 8.75143362,53.7458057 C10.0527907,54.0189926 10.3119266,54.8406456 10.4789264,55.67461 C10.523094,55.8951936 10.5207846,56.1261907 10.5301666,56.3528083 C10.5442637,56.6926131 10.5162139,56.7361166 10.2050198,56.7434159 C9.77248505,56.7535862 9.33946918,56.7365059 8.90669387,56.7401556 C8.69297648,56.7419561 8.57625465,56.650618 8.55258311,56.4347547 C8.54555863,56.3705699 8.52804554,56.3074556 8.5129381,56.2444387 C8.31019045,55.4004013 8.06274593,55.1728591 7.19325006,55.1130052 C6.3462229,55.0547085 5.49823348,55.0532973 4.65621006,55.2011316 C4.07130184,55.3038078 3.67744985,55.714026 3.63462939,56.3194751 C3.61182389,56.6414696 3.6200993,56.968671 3.64786043,57.2906169 C3.6899592,57.7794724 3.98277415,58.0858466 4.46173782,58.1709559 C5.29933486,58.3198121 6.14434128,58.4142645 6.99377408,58.4333399 C7.72023038,58.4496902 8.42801888,58.582488 9.13373853,58.727062 C9.46047306,58.7940205 9.77070487,58.9347015 10.0509143,59.1315381 C10.5185233,59.4600533 10.6676251,59.9751376 10.7138616,60.4843824 C10.7970487,61.3996605 10.8503578,62.3165445 10.5879502,63.2321147 C10.3383406,64.1031107 9.79264435,64.5763945 8.9460502,64.7292409 C7.14735038,65.0539119 5.34460907,65.0666126 3.54538001,64.7360536 C2.41544914,64.528414 1.83097394,63.8499724 1.73373782,62.6781984 C1.71362664,62.4358631 1.68504759,62.193917 1.67417408,61.9511924 C1.65637232,61.5554754 1.71559927,61.483164 2.09049479,61.4722638 C2.49093824,61.460585 2.89229584,61.4785898 3.29254685,61.463894 C3.53118671,61.4551349 3.60374092,61.5774218 3.61119842,61.784818 C3.61702008,61.9467642 3.61427764,62.1096836 3.63140583,62.2704132 C3.69534784,62.8707041 4.11012893,63.3117252 4.69907863,63.3274916 C5.67620301,63.353623 6.65568491,63.3660317 7.6317508,63.3247666 C8.10989655,63.304572 8.51110981,63.0599009 8.70615941,62.5599991 C8.91477683,62.0251582 8.92492865,61.4808769 8.7876145,60.9375203 C8.66382008,60.4475941 8.31812907,60.1826798 7.8271853,60.1078381 C6.98622036,59.9796144 6.1395781,59.9006851 5.29077077,59.8757704 C4.56354466,59.8544565 3.85205147,59.7264762 3.1567242,59.5482284 C2.3603599,59.3441411 1.86797274,58.7996166 1.74778678,57.9474527 C1.63130551,57.1218094 1.65411101,56.2958255 1.75668766,55.4740265 C1.8547417,54.6880911 2.58884794,53.9853674 3.35610396,53.7849784 C4.27082593,53.5460981 5.1956035,53.5543219 6.21641436,53.5478012" id="Fill-25" fill="#FEFEFE" sketch:type="MSShapeGroup"></path>
                        <path d="M63.7329842,53.5469253 C64.6290865,53.5582148 65.5212916,53.5426918 66.4067129,53.7703799 C67.2415194,53.9849781 67.801457,54.5083834 67.9394447,55.3657542 C67.9960736,55.717481 68.0312922,56.0727602 68.0767589,56.4263362 C68.1032691,56.6324672 68.0098339,56.7335862 67.8090588,56.7345108 C67.3441441,56.7365546 66.8791813,56.7345108 66.4142666,56.7370899 C66.2024737,56.7382578 66.0848859,56.6374794 66.0613587,56.4245844 C66.0595304,56.4084773 66.0574615,56.3923703 66.0545266,56.3764093 C65.8761722,55.4038563 65.671067,55.1944163 64.7205972,55.1165089 C63.9389073,55.0524214 63.1589014,55.092324 62.3750945,55.1670684 C61.447767,55.2555354 61.1161731,56.0073102 61.1299814,56.7736348 C61.1314248,56.8539753 61.1514398,56.9340725 61.163901,57.014121 C61.3247905,58.0495449 61.5610728,58.1347029 62.4060311,58.2423913 C63.2654714,58.3519288 64.1257296,58.4232182 64.9917613,58.455189 C65.7623853,58.4836561 66.5117914,58.658157 67.2382958,58.9244339 C67.7531998,59.113144 68.0411072,59.5202479 68.1666818,60.022972 C68.4304366,61.0788339 68.3884341,62.1464719 68.1573479,63.2027717 C67.9662917,64.0762007 67.3814316,64.5623312 66.5359922,64.7206278 C64.8198059,65.0419411 63.0951999,65.0651041 61.3703053,64.794107 C60.0048138,64.5796062 59.4595024,64.0153736 59.249586,62.6195124 C59.20869,62.3477854 59.2008957,62.0709975 59.1731827,61.7970808 C59.1531678,61.5989303 59.2238937,61.4818988 59.4323187,61.4804877 C59.8812118,61.477422 60.3300568,61.4767894 60.7789018,61.4743563 C60.998922,61.4731884 61.0963024,61.5932368 61.1069354,61.8051586 C61.1200221,62.0657907 61.1859367,62.3139168 61.2580579,62.564622 C61.4070154,63.0820906 61.799424,63.3055452 62.2632321,63.323696 C63.2557045,63.3624307 64.2509193,63.346859 65.2445464,63.3292921 C65.7296685,63.320679 66.1634542,62.9405337 66.280609,62.4599019 C66.3929045,61.9992702 66.4162873,61.5292954 66.3392105,61.0597098 C66.2434659,60.4767425 65.9836083,60.206962 65.4016349,60.1158672 C64.5298777,59.9794685 63.6501819,59.9210257 62.7701012,59.8643348 C61.9222562,59.8097851 61.0839374,59.7024373 60.2828581,59.378545 C59.8037019,59.1848227 59.54115,58.8216117 59.4086471,58.3524641 C59.1206916,57.3329039 59.1078935,56.3059471 59.380886,55.2781144 C59.5964317,54.4666804 60.1137894,54.0012797 60.9164565,53.7831779 C61.8466708,53.5303803 62.7895388,53.566098 63.7329842,53.5469253" id="Fill-27" fill="#FEFEFE" sketch:type="MSShapeGroup"></path>
                        <path d="M116.358544,63.598659 C116.566439,63.5861043 116.824709,63.5908731 117.076003,63.5509219 C117.565359,63.4731605 117.908019,63.1807522 118.007035,62.6927726 C118.23663,61.5611444 118.294076,60.4213898 118.029744,59.2831923 C117.944729,58.917013 117.761371,58.6283517 117.399514,58.4864541 C116.733006,58.2250921 116.048264,58.2642647 115.377618,58.4272815 C115.047997,58.5073787 114.761629,58.7522444 114.69379,59.1147255 C114.578078,59.7325833 114.474058,60.3594921 114.496046,60.9894666 C114.514569,61.5204146 114.595784,62.05 114.66574,62.5779309 C114.736081,63.1087329 115.116606,63.4907273 115.640507,63.5619194 C115.861393,63.5919437 116.087043,63.586007 116.358544,63.598659 L116.358544,63.598659 Z M119.958589,59.3105889 C119.958589,61.0602694 119.960273,62.8099986 119.957387,64.5597278 C119.956713,64.9885835 119.949977,64.9931091 119.52923,64.9977319 C119.225109,65.0011382 118.920843,64.9909679 118.616625,64.9859071 C118.395835,64.9822575 118.303603,64.8730606 118.319769,64.6462484 C118.333529,64.452964 118.324628,64.2576359 118.317363,64.0634757 C118.313706,63.9659576 118.29321,63.8648872 118.17697,63.8370041 C118.066454,63.8104834 117.996258,63.8745223 117.941217,63.9614321 C117.477457,64.6936935 116.754176,64.8967102 115.960458,64.9501408 C115.248002,64.9980725 114.560229,64.9003112 113.892278,64.627027 C113.379346,64.4171977 113.130266,64.0081473 112.980539,63.5122358 C112.801992,62.9209473 112.703986,62.3162282 112.703216,61.6947208 C112.702302,60.9657684 112.676561,60.2365726 112.722942,59.5083501 C112.75513,59.0025602 112.881041,58.5187655 113.107027,58.0661629 C113.35298,57.5735117 113.764009,57.2939989 114.280356,57.1392059 C115.130126,56.8844619 115.976142,56.8450459 116.827692,57.1216391 C117.18315,57.2370646 117.517679,57.3796921 117.740634,57.7079154 C117.78432,57.7722462 117.852641,57.8245575 117.919325,57.8667472 C118.106532,57.9851898 118.219598,57.934679 118.243029,57.7031952 C118.267422,57.4621251 118.266075,57.2178433 118.267326,56.9749727 C118.272185,56.0029063 118.270982,55.0308399 118.277526,54.0587735 C118.280797,53.5707452 118.285945,53.5650031 118.7868,53.5479715 C119.090585,53.5376553 119.395043,53.549772 119.699213,53.5495287 C119.87877,53.5494314 119.962005,53.6370711 119.957531,53.8184333 C119.954355,53.9479222 119.959696,54.0776056 119.959696,54.2071918 C119.959888,55.9083079 119.95984,57.6094241 119.95984,59.3105889 L119.958589,59.3105889 Z" id="Fill-29" fill="#FEFEFE" sketch:type="MSShapeGroup"></path>
                        <path d="M71.7011643,60.8991602 C71.7047246,61.4325899 71.7231519,61.9631486 71.7767977,62.4964323 C71.848534,63.209375 72.3428457,63.5550679 72.9160625,63.5748245 C73.3312766,63.5891311 73.7485114,63.5902503 74.163052,63.5659681 C74.7008577,63.5344839 75.081623,63.176869 75.1763091,62.6375513 C75.2237484,62.3673814 75.2372681,62.0911775 75.2825904,61.8204724 C75.4316922,60.9293305 75.3558182,60.0476776 75.1684186,59.1739565 C75.0723853,58.7263174 74.7071605,58.3993107 74.2653399,58.3528875 C73.7715575,58.3010627 73.2732043,58.3011601 72.77947,58.3469994 C72.283715,58.3930334 71.8319351,58.7977528 71.7749694,59.3515231 C71.7218047,59.8684078 71.7049652,60.3822755 71.7011643,60.8991602 M69.8690741,60.9641723 C69.8690741,60.5752679 69.8866834,60.1853902 69.8648402,59.797751 C69.8339036,59.2483116 69.9908478,58.7331787 70.1569816,58.2316711 C70.3559764,57.6310396 70.8435523,57.3185341 71.4394302,57.175274 C72.8011689,56.848024 74.1648321,56.8193622 75.5252718,57.1734735 C76.1955322,57.3479258 76.6826751,57.6950298 76.9049085,58.432644 C77.2023904,59.4200388 77.1542775,60.4175553 77.1467238,61.4172128 C77.1417682,62.0780389 77.1004873,62.731809 76.8960076,63.3809562 C76.6682412,64.1040206 76.2388819,64.5546768 75.5294095,64.7333139 C74.1650246,65.0768169 72.7934709,65.0421211 71.4362067,64.7113675 C70.7013306,64.5322924 70.1824333,64.0841667 70.0569549,63.2706401 C70.0226985,63.0486941 69.8966428,62.836529 69.886491,62.6163834 C69.8611355,62.0667007 69.8781193,61.5150715 69.8781193,60.9642209 C69.8750882,60.9642209 69.8721052,60.9641723 69.8690741,60.9641723" id="Fill-31" fill="#FEFEFE" sketch:type="MSShapeGroup"></path>
                        <path d="M42.3529602,63.6021529 C42.3530083,63.5952916 42.3530083,63.588479 42.3530564,63.5816177 C42.5127912,63.5816177 42.6728146,63.588041 42.8321644,63.5804985 C43.5496717,63.5465326 43.9557444,63.179234 44.0512966,62.4678484 C44.1914975,61.4239573 44.2105502,60.3794823 44.0520182,59.3346667 C43.9646453,58.75895 43.6149128,58.3967122 43.0427545,58.3457634 C42.5648974,58.303233 42.0830951,58.3030384 41.6053342,58.3494617 C41.1110225,58.3974908 40.7576335,58.7368089 40.6527955,59.2344722 C40.4092,60.3907232 40.4506252,61.5474121 40.6681916,62.700792 C40.7612901,63.1944651 41.1295941,63.5151458 41.6346831,63.5646347 C41.8730824,63.5879924 42.1134543,63.5902795 42.3529602,63.6021529 M38.7249126,60.8816712 C38.7249126,60.4116477 38.7235174,59.9415756 38.7252975,59.4715034 C38.7271258,59.008098 38.8871492,58.5789503 39.0395227,58.1548635 C39.2467449,57.5779789 39.7395169,57.3237701 40.2828075,57.1851815 C41.6588839,56.8342333 43.0411186,56.8294644 44.4198893,57.18051 C45.1304683,57.3614343 45.5975481,57.7864457 45.7832157,58.5286341 C45.9020545,59.0037184 45.9871181,59.4775862 45.9841351,59.966831 C45.9796125,60.7127177 45.969172,61.4586045 45.9675842,62.2044912 C45.9665258,62.700792 45.8035674,63.1632729 45.6559571,63.6216663 C45.4611962,64.2263854 44.974727,64.5437084 44.398864,64.7233188 C44.1394393,64.8042432 43.8721242,64.8859462 43.6038468,64.9065301 C42.4985497,64.9912988 41.389548,65.0230749 40.3079706,64.7243407 C39.6035018,64.5297425 39.1258372,64.1088187 38.9089925,63.3407422 C38.6782913,62.5233714 38.7341503,61.7031782 38.7249126,60.8816712" id="Fill-33" fill="#FEFEFE" sketch:type="MSShapeGroup"></path>
                        <path d="M134.311589,61.4593295 C134.123708,61.4593295 133.962914,61.4491106 133.803757,61.46113 C133.170255,61.5089645 132.732476,61.8887205 132.622923,62.476408 C132.545269,62.8928063 132.749412,63.4329999 133.081246,63.563462 C133.888773,63.8809797 134.714197,63.9015149 135.5083,63.5375253 C135.906915,63.3548006 136.153782,62.9997647 136.127753,62.5251184 C136.103649,62.0859464 135.818099,61.8418593 135.452393,61.6603024 C135.080144,61.4755339 134.688938,61.4321763 134.311589,61.4593295 M137.825705,61.8503751 C137.825705,62.7736337 137.831911,63.6969411 137.822626,64.6201024 C137.818921,64.9855032 137.800397,64.9922672 137.433152,64.9985446 C137.112864,65.0039947 136.792433,65.0003937 136.472097,64.9978633 C136.274931,64.9963061 136.182313,64.9032649 136.199778,64.6932896 C136.213154,64.5326573 136.21657,64.3678401 136.196314,64.2085703 C136.173124,64.0257483 136.023396,63.9698846 135.885216,64.0882299 C135.75204,64.202293 135.670152,64.3643851 135.523456,64.4732414 C135.160636,64.7424866 134.736377,64.8333381 134.311925,64.9059413 C133.575365,65.0318778 132.839238,65.0098341 132.131835,64.7441411 C131.407399,64.4720248 130.912318,63.9867702 130.816525,63.1685235 C130.771106,62.780495 130.760377,62.3920286 130.823694,62.0059952 C130.947151,61.2537825 131.363328,60.7573357 132.078862,60.4927133 C132.648856,60.2819107 133.233427,60.2420568 133.827236,60.2508159 C134.195011,60.2562174 134.559658,60.2766553 134.916415,60.4013266 C135.237136,60.5134432 135.552756,60.6195744 135.797458,60.8720313 C135.864865,60.9416176 135.94223,61.0179191 136.047549,60.9768487 C136.173894,60.927603 136.178224,60.8045375 136.178224,60.6893553 C136.178127,60.2195264 136.197758,59.7484324 136.169611,59.280258 C136.13218,58.6574854 135.655044,58.1888245 135.012064,58.121282 C134.742391,58.0929609 134.468485,58.1029366 134.196454,58.10172 C133.617416,58.0992383 133.179108,58.3571454 132.897022,58.8636165 C132.798054,59.041329 132.675077,59.1249785 132.479595,59.1253678 C132.111291,59.1260491 131.742986,59.1302826 131.374731,59.1371439 C131.145521,59.1413775 131.069839,59.02493 131.075324,58.8042978 C131.095387,57.9973407 131.429579,57.227269 132.412814,57.1483884 C133.031545,57.0987535 133.618474,56.877586 134.253757,56.8996784 C134.995705,56.9254691 135.722402,57.0312597 136.437504,57.1988019 C136.989888,57.3281934 137.400676,57.6720371 137.616991,58.2406006 C137.769413,58.6412324 137.855775,59.0401612 137.850242,59.4688708 C137.840091,60.2625434 137.847356,61.0565079 137.847356,61.8503264 C137.840139,61.8503264 137.832922,61.8503751 137.825705,61.8503751" id="Fill-35" fill="#FEFEFE" sketch:type="MSShapeGroup"></path>
                        <path d="M93.2061134,62.6385148 C93.2049105,63.2742314 93.3619029,63.5311166 93.9195792,63.6791941 C94.6482006,63.8726245 95.3785059,63.8453739 96.0764313,63.5423574 C96.4636437,63.3742312 96.6455584,63.0400226 96.6518131,62.6138919 C96.6582121,62.1809 96.4546947,61.8793434 96.0786926,61.6856211 C95.4615968,61.3676655 94.7946562,61.3828966 94.1567275,61.5078599 C93.564025,61.6239667 93.1566052,61.9440148 93.2061134,62.6385148 M98.4282848,62.1161313 C98.4282848,63.022991 98.4307867,63.8014324 98.4271782,64.5798738 C98.4254943,64.9360775 98.4203462,64.9449826 98.0959692,64.9560775 C97.7277132,64.9686809 97.3587837,64.9677076 96.9902391,64.963766 C96.7936018,64.9616736 96.692276,64.8741312 96.7550152,64.6543262 C96.7901857,64.5310174 96.8203044,64.4011393 96.8210742,64.2739863 C96.8223733,64.060118 96.6932864,63.9936948 96.5005462,64.0949112 C96.458255,64.1171009 96.4162044,64.1443028 96.3823329,64.1777334 C95.5240954,65.0246418 94.4619556,65.035834 93.3763367,64.9103355 C93.0773152,64.8757857 92.778005,64.7858588 92.4952938,64.6773919 C91.8927762,64.4462974 91.5558418,63.9637192 91.3886495,63.3557884 C91.1421673,62.4593423 91.3355329,61.2758895 92.2022863,60.7032384 C92.5340246,60.4840661 92.9066107,60.3587622 93.2803515,60.314334 C94.058866,60.2217308 94.8450303,60.1756482 95.6089666,60.4552097 C95.8537168,60.5447472 96.0887963,60.6341875 96.2618583,60.8432382 C96.3475473,60.9467417 96.4557532,61.0257196 96.5968201,60.963384 C96.7172466,60.910148 96.7311513,60.789759 96.7302371,60.6737008 C96.7259551,60.1235801 96.7679576,59.5720969 96.6451735,59.0266478 C96.5560204,58.6304928 96.3530803,58.3524884 95.9567264,58.2338025 C95.3257742,58.0448004 94.7006436,58.0107372 94.0735885,58.2590579 C93.7741821,58.3776465 93.5340026,58.5479139 93.4423476,58.8725362 C93.4019328,59.0156989 93.3344304,59.0996404 93.1804211,59.1030467 C92.7317204,59.1129737 92.2831641,59.1289347 91.8344634,59.1367206 C91.6346507,59.1401756 91.5202382,59.0263072 91.5615191,58.8302491 C91.6922418,58.2087904 91.8144485,57.5750202 92.4837467,57.2781351 C92.5566858,57.2457751 92.6263051,57.1978433 92.7025159,57.1819796 C94.1295919,56.8856298 95.5586405,56.7980387 96.9820118,57.194145 C97.8037797,57.4228551 98.2152891,58.009472 98.3212818,58.8436311 C98.4649468,59.9739454 98.4207792,61.1100017 98.4282848,62.1161313" id="Fill-37" fill="#FEFEFE" sketch:type="MSShapeGroup"></path>
                        <path d="M14.1555487,60.8707369 C14.1857155,61.495164 14.0723615,62.1338977 14.2892063,62.7479598 C14.4838228,63.2989564 14.7525332,63.5392966 15.3390292,63.5723866 C15.7377406,63.5948683 16.1386652,63.5794425 16.5385794,63.5769121 C16.7004311,63.5758902 16.8502546,63.5241141 17.0016177,63.4645035 C17.5391828,63.2529224 17.6463302,62.7641642 17.7065194,62.284165 C17.8195366,61.3830961 17.8510986,60.4680613 17.7136882,59.5721991 C17.5860448,58.7401325 17.3310947,58.316289 16.3158168,58.3268972 C16.0757335,58.329379 15.8355059,58.3311308 15.5955189,58.3257294 C14.6870035,58.3053401 14.2685658,58.6939525 14.162092,59.7072354 C14.1217735,60.0909816 14.1555487,60.4826598 14.1555487,60.8707369 M19.6446504,60.7915157 C19.6285807,61.5660641 19.5745018,62.3078146 19.4333867,63.041098 C19.2328523,64.0833832 18.7328152,64.5768616 17.7041138,64.7968126 C16.491958,65.0560335 15.2870673,65.0176881 14.0821285,64.7612895 C13.0990381,64.5520928 12.6234904,64.039831 12.4386889,62.9863049 C12.1989905,61.6198353 12.183835,60.2486456 12.4341182,58.8802296 C12.6146858,57.8928348 13.0756552,57.3371667 14.0501815,57.1438823 C15.3241623,56.8912307 16.5942941,56.8705982 17.8631268,57.1514736 C18.84487,57.3688454 19.2817349,57.8493798 19.4644195,58.8418355 C19.5849904,59.4967248 19.641523,60.1557504 19.6446504,60.7915157" id="Fill-39" fill="#FEFEFE" sketch:type="MSShapeGroup"></path>
                        <path d="M125.432569,60.1908695 L125.432569,60.1923294 C125.7849,60.1923294 126.13723,60.1935946 126.489561,60.1920374 C127.242335,60.1887771 127.298435,60.1224998 127.214478,59.3441071 C127.209233,59.2958347 127.206635,59.247027 127.19836,59.1992898 C127.126623,58.7848867 126.787572,58.4057633 126.373128,58.3593887 C125.768253,58.2917002 125.158133,58.310143 124.550564,58.3516514 C124.472958,58.3569556 124.395063,58.3899482 124.321691,58.4207997 C123.742268,58.6642056 123.604087,59.155251 123.607888,59.7263935 C123.610583,60.1295071 123.65119,60.1823051 124.039268,60.1889717 C124.503558,60.1969523 124.968136,60.1908695 125.432569,60.1908695 L125.432569,60.1908695 Z M126.300429,61.22133 C125.547463,61.22133 124.794496,61.2186049 124.041578,61.2224492 C123.640557,61.224493 123.558428,61.2992374 123.55559,61.6983607 C123.552799,62.089017 123.61039,62.4741258 123.758193,62.838894 C123.953002,63.3195744 124.304948,63.5806931 124.823268,63.6086249 C125.335525,63.6362648 125.847687,63.6298414 126.359271,63.6024936 C126.845692,63.5765569 127.11421,63.3606448 127.24017,62.8657552 C127.28631,62.684539 127.3401,62.5629821 127.540972,62.5638093 C127.925393,62.5654638 128.30996,62.5616195 128.694189,62.5712059 C128.901507,62.5764127 129.003699,62.6734928 128.993451,62.910816 C128.949765,63.9213738 128.414365,64.4538789 127.475346,64.7249246 C126.251354,65.0782573 125.007396,65.0323693 123.7644,64.7869196 C123.428331,64.7205451 123.121996,64.5895477 122.821243,64.4387938 C122.617437,64.3366042 122.45443,64.1845363 122.348341,63.9719819 C122.138906,63.5524693 121.946888,63.1319835 121.915277,62.6495999 C121.881454,62.1330072 121.768052,61.6168524 121.782101,61.1030333 C121.806206,60.2194826 121.812172,59.3326229 122.104072,58.4716512 C122.357146,57.7253265 122.883405,57.3515559 123.58566,57.1669334 C124.851269,56.8341359 126.124865,56.8408513 127.382343,57.1864954 C128.004539,57.3574927 128.459831,57.7299981 128.702849,58.4040114 C128.993018,59.2087302 128.922388,60.0331083 128.995761,60.8493112 C129.020539,61.1246391 128.878461,61.2203081 128.559281,61.2223519 C127.806362,61.227218 127.053396,61.223909 126.300429,61.223909 L126.300429,61.22133 Z" id="Fill-41" fill="#FEFEFE" sketch:type="MSShapeGroup"></path>
                        <path d="M143.223724,64.9655033 C142.450069,65.0460871 141.687336,64.9197613 140.940383,64.7344575 C139.930205,64.4838983 139.618241,63.6855056 139.625554,62.8376726 C139.626998,62.6706656 139.71668,62.6099844 139.866889,62.6054102 C140.299423,62.5923202 140.73191,62.5762618 141.164493,62.5652643 C141.309313,62.561566 141.433011,62.6220038 141.426371,62.7827335 C141.399957,63.4215644 141.847455,63.625311 142.327814,63.7373303 C142.991676,63.8920745 143.664294,63.8891062 144.310931,63.6169899 C144.966998,63.340932 145.183409,62.7581107 144.877748,62.1176739 C144.720804,61.7888667 144.446224,61.6456552 144.109915,61.6127599 C143.408141,61.5440982 142.7055,61.4831251 142.002427,61.4299379 C141.600829,61.399573 141.208179,61.3431254 140.826596,61.2035149 C140.207913,60.9771406 139.783365,60.4027378 139.764745,59.7283351 C139.755844,59.4041508 139.751466,59.0791878 139.763687,58.7552955 C139.793661,57.9645427 140.214264,57.365517 141.000957,57.1752497 C142.429092,56.8298975 143.85559,56.8323792 145.288584,57.1498969 C146.210571,57.3541788 146.493764,58.0440559 146.536103,58.7686288 C146.547265,58.9603073 146.452531,59.035441 146.282163,59.0399178 C145.897549,59.0500881 145.51279,59.0542731 145.128224,59.0649786 C144.955932,59.0697961 144.868992,58.9875092 144.822611,58.8223513 C144.677551,58.3059046 144.296497,58.1269268 143.80358,58.1013307 C143.242151,58.072231 142.683849,58.0311119 142.153982,58.2934958 C141.636576,58.5496024 141.397985,59.346584 141.69946,59.8336877 C141.782791,59.968286 141.913707,60.0232737 142.045921,60.0808892 C142.348022,60.2125678 142.671532,60.2256091 142.990906,60.2276529 C143.85968,60.2332004 144.717244,60.3269715 145.567831,60.5039055 C146.185168,60.6323237 146.731201,61.0279921 146.780372,61.8072608 C146.806016,62.2130508 146.828148,62.6163591 146.783066,63.0211272 C146.677699,63.9683761 146.202825,64.5173289 145.278721,64.7406862 C144.605429,64.9034596 143.920254,64.9731918 143.223724,64.9655033" id="Fill-43" fill="#FEFEFE" sketch:type="MSShapeGroup"></path>
                        <path d="M78.8177561,60.8940848 C78.7858091,60.1961299 78.8300249,59.4751093 79.0176651,58.7598308 C79.240572,57.9099053 79.748644,57.3849914 80.5879731,57.1631913 C81.8577681,56.8276688 83.1234254,56.8520483 84.3885534,57.1762813 C85.4556007,57.4497601 85.7780532,58.2944301 85.8105294,59.3256692 C85.8161105,59.5032844 85.7174791,59.5943791 85.5435992,59.595839 C85.1591773,59.5990993 84.7747073,59.5995373 84.3902855,59.6008025 C84.2209282,59.6013378 84.1404834,59.5118002 84.0895319,59.3489295 C83.8612844,58.6197337 83.3531162,58.2860117 82.6051535,58.3006102 C82.3488562,58.3056223 82.0917891,58.2849411 81.8360211,58.2967659 C81.2369195,58.3245031 80.7976009,58.7045511 80.7152316,59.3002191 C80.5635318,60.3974434 80.5538611,61.4993392 80.7151354,62.5963689 C80.8041442,63.2016232 81.2726193,63.5957344 81.8824981,63.6093597 C82.3148404,63.6190434 82.7479525,63.6189947 83.1801023,63.6051262 C83.7372494,63.5872186 84.0377143,63.3198225 84.1395212,62.7793856 C84.2760655,62.0546667 84.2760655,62.0475621 85.0130104,62.048146 C86.0815974,62.0489732 85.8581612,61.9660537 85.8362217,62.9235702 C85.8251557,63.4060511 85.7542855,63.8501379 85.3954597,64.2165119 C85.1458501,64.4713533 84.8273428,64.5822533 84.5188431,64.7007933 C84.2228527,64.8145644 83.9006407,64.8918878 83.5850684,64.9141262 C82.6090987,64.9828366 81.6351979,64.994856 80.6683216,64.7682384 C79.7603835,64.5553921 79.2272929,64.0179235 79.0029907,63.0981198 C78.8274749,62.378413 78.7978855,61.6582197 78.8177561,60.8940848" id="Fill-45" fill="#FEFEFE" sketch:type="MSShapeGroup"></path>
                        <path d="M36.6514113,53.3856653 C37.5801823,53.3696069 37.5801341,53.3696069 37.5697418,54.2415275 C37.5650748,54.6338382 37.5652673,54.6359307 37.1702606,54.6712104 C36.8221639,54.7023052 36.4711805,54.6762226 36.1502195,54.8857599 C35.8295472,55.0950539 35.6369514,55.3700899 35.5871064,55.7443471 C35.5572283,55.9685803 35.5420246,56.1966578 35.5430831,56.4228861 C35.5451039,56.8356347 35.5981243,56.8894059 36.0228647,56.9043451 C36.4072385,56.917873 36.792382,56.9075567 37.1769964,56.9167051 C37.5580503,56.9257562 37.5688757,56.941328 37.5725804,57.3414246 C37.5744087,57.5359741 37.5609371,57.7312535 37.5734464,57.9249272 C37.5898048,58.1769462 37.4743339,58.2815688 37.2371856,58.2820555 C36.9326311,58.2826394 36.6280285,58.286143 36.3234258,58.2888681 C35.5447671,58.2959241 35.544286,58.29607 35.5400039,59.0631733 C35.5299483,60.8629754 35.520422,62.6627288 35.5106069,64.4624823 C35.5100777,64.559757 35.506373,64.6571291 35.5089711,64.7543066 C35.5134937,64.9212162 35.4178453,64.9890507 35.2711492,64.9907052 C34.886583,64.9951334 34.5019205,64.9949874 34.1173543,64.992019 C33.8929078,64.9902672 33.8793399,64.8362042 33.8787145,64.6577617 C33.8756352,63.7497342 33.8632702,62.8418039 33.8586995,61.933825 C33.8536476,60.9285227 33.8562457,59.9231717 33.8502316,58.9178694 C33.8467675,58.3391843 33.8214601,58.3171892 33.2620517,58.2874569 C32.8125813,58.263564 32.8113303,58.2622988 32.7952125,57.8143191 C32.7934805,57.765706 32.7914597,57.717093 32.7908342,57.6684799 C32.781789,56.9727148 32.7818371,56.9727148 33.4482486,56.9105251 C33.7879736,56.8787977 33.8523005,56.8174352 33.8701985,56.4535429 C33.8987294,55.8723761 33.8822267,55.2923772 34.0560585,54.7208453 C34.2577477,54.0576835 34.6970663,53.692672 35.3349949,53.5462976 C35.7880739,53.4423075 36.2494764,53.3773928 36.6514113,53.3856653" id="Fill-47" fill="#FEFEFE" sketch:type="MSShapeGroup"></path>
                        <path d="M108.918845,59.238443 C108.918845,57.489833 108.916487,55.7411744 108.920529,53.9925644 C108.921539,53.5715919 108.931017,53.5629302 109.341901,53.5499861 C109.709484,53.5384047 110.07798,53.5572854 110.445611,53.5465312 C110.70186,53.5389886 110.790195,53.6598156 110.766042,53.8996205 C110.762819,53.93164 110.765802,53.9643406 110.766139,53.9967007 C110.800491,57.4616579 110.817331,60.9266152 110.782978,64.3916697 C110.781872,64.5049542 110.776435,64.6182873 110.777638,64.7315718 C110.779225,64.8832017 110.719325,64.988457 110.560745,64.9905494 C110.080626,64.9968755 109.600412,64.9980434 109.120293,64.9942477 C108.989523,64.9931772 108.918989,64.9102576 108.915669,64.7756107 C108.910473,64.5651974 108.901861,64.3547842 108.901717,64.1444196 C108.900514,62.5090941 108.901043,60.8737686 108.901043,59.238443 L108.918845,59.238443" id="Fill-49" fill="#FEFEFE" sketch:type="MSShapeGroup"></path>
                        <path d="M47.9289777,60.9640798 C47.9289777,59.7491428 47.9265721,58.5342059 47.9303249,57.3192689 C47.9315758,56.9253523 47.938889,56.9221406 48.3342325,56.9161553 C48.6384983,56.9115811 48.9428604,56.9170798 49.2471743,56.9166905 C49.4605549,56.9163499 49.5783833,56.9978583 49.5493231,57.2378578 C49.5319063,57.3818478 49.5363327,57.5288549 49.5359478,57.674548 C49.5357553,57.7579056 49.5562514,57.8381974 49.6440574,57.871628 C49.746201,57.9105574 49.8308797,57.8729905 49.8999698,57.7942072 C49.9210432,57.770217 49.9377865,57.7421392 49.9552515,57.7151319 C50.555219,56.7879803 51.7272005,56.7063746 52.5836578,56.9443304 C53.099476,57.0876391 53.4050408,57.4960082 53.5750717,57.9928443 C53.759777,58.5325514 53.7740185,59.1034506 53.827087,59.6660773 C53.838201,59.7838873 53.7728156,59.8563446 53.6629739,59.8575611 C53.2627229,59.861892 52.8622795,59.8598482 52.4620285,59.8531816 C52.2637553,59.8499213 52.2433073,59.6957123 52.2364753,59.544715 C52.2240622,59.2700683 52.2238697,58.9987306 52.0917518,58.7412614 C51.8039406,58.1803379 51.271331,57.9559101 50.6806974,58.1613112 C50.048831,58.3810675 49.7517821,58.8740106 49.6304896,59.4972698 C49.587621,59.7176101 49.5851191,59.9480719 49.5830503,60.1741056 C49.5698192,61.6320592 49.5632759,63.0900614 49.5511033,64.548015 C49.5478316,64.9389145 49.5430204,64.9485009 49.1624956,64.9764813 C48.859577,64.9987197 48.5543008,64.9861164 48.2508048,65.0032453 C47.9966726,65.0175518 47.9219533,64.905046 47.9237816,64.6574552 C47.932923,63.4263625 47.9279674,62.1951725 47.9279674,60.9640312 C47.9283042,60.9640312 47.928641,60.9640798 47.9289777,60.9640798" id="Fill-51" fill="#FEFEFE" sketch:type="MSShapeGroup"></path>
                        <path d="M25.3210314,59.219499 C25.3210314,57.4839304 25.3194918,55.7484104 25.3220899,54.0128418 C25.3227634,53.5662732 25.3284889,53.5570275 25.7753613,53.5416991 C26.0952638,53.5306528 26.4161285,53.5480737 26.7365603,53.5538645 C26.9132789,53.5570275 26.9981981,53.6486088 26.9955038,53.8283165 C26.9935311,53.958 26.9997377,54.0877808 26.9997377,54.2175129 C26.9992566,57.6399885 26.9989679,61.0624154 26.9969953,64.484891 C26.9967547,64.9493184 26.992617,64.9511189 26.5124986,64.9540386 C26.1917782,64.955985 25.8710578,64.9510702 25.5503373,64.9507296 C25.3955101,64.9505349 25.3091475,64.8866421 25.3180484,64.7180779 C25.3231965,64.6209978 25.3192993,64.5234797 25.3192993,64.4261563 L25.3192993,59.219499 L25.3210314,59.219499 Z" id="Fill-53" fill="#FEFEFE" sketch:type="MSShapeGroup"></path>
                        <g id="Group-57">
                            <mask id="mask-2" sketch:name="Clip 56" fill="white">
                                <use xlink:href="#path-1"></use>
                            </mask>
                            <g id="Clip-56"></g>
                            <path d="M102.159857,59.2642629 C102.159857,60.9983231 102.161108,62.7323832 102.159039,64.4664433 C102.158462,64.9526225 102.153939,64.9526225 101.703218,64.9835714 C100.592676,65.0598243 100.588971,65.0598243 100.588923,63.9612374 C100.588827,60.6875694 100.590463,57.41395 100.594986,54.1403306 C100.595803,53.5547355 100.603646,53.5547355 101.169405,53.5383365 C102.152929,53.5097721 102.157884,53.5097721 102.16053,54.4996973 C102.164812,56.0878696 102.161685,57.6760906 102.161685,59.2642629 L102.159857,59.2642629 Z" id="Fill-55" fill="#FEFEFE" sketch:type="MSShapeGroup" mask="url(#mask-2)"></path>
                        </g>
                        <path d="M23.1614946,60.9707367 C23.1614946,62.1685448 23.1641889,63.3663529 23.1599069,64.5641609 C23.1586078,64.9361311 23.15014,64.9372016 22.7981462,64.9750604 C22.462607,65.0111674 22.1276452,64.9957903 21.7915286,64.9723354 C21.5757905,64.9572502 21.4788912,64.8792942 21.4884175,64.6446961 C21.5022259,64.3055726 21.4810081,63.9651352 21.4808157,63.6252818 C21.4796129,61.5533148 21.478843,59.4813964 21.4810081,57.409478 C21.4815374,56.9273864 21.4892835,56.9222282 21.9627142,56.9141991 C22.2186266,56.9098682 22.475405,56.9060239 22.7306438,56.9214496 C23.1406617,56.9461698 23.1532192,56.9593571 23.1545183,57.3773126 C23.1583192,58.5751206 23.1558173,59.7729287 23.1558173,60.9707367 L23.1614946,60.9707367 Z" id="Fill-58" fill="#FEFEFE" sketch:type="MSShapeGroup"></path>
                        <path d="M89.3144794,60.9622939 C89.3144794,62.1786421 89.317703,63.3949903 89.3125549,64.6112898 C89.3109672,64.9901212 89.3007192,64.9962039 88.943866,64.9972258 C88.639552,64.9981017 88.3343721,64.9938682 88.0310685,64.9715325 C87.6815766,64.9457904 87.6758993,64.9361067 87.6735898,64.5614602 C87.6637267,62.9720713 87.6543447,61.3826338 87.6522277,59.7931963 C87.6511692,58.9823462 87.6645446,58.1713987 87.6737823,57.3604999 C87.678786,56.9186029 87.6809992,56.9171431 88.13658,56.9130555 C88.3931179,56.9107684 88.649752,56.911693 88.9062898,56.9155372 C89.3026437,56.9215226 89.3088502,56.9229825 89.3150087,57.3132981 C89.3298756,58.2538317 89.3390651,59.1945112 89.3489283,60.1351421 C89.351815,60.4108107 89.3493613,60.6865767 89.3493613,60.9622939 L89.3144794,60.9622939" id="Fill-60" fill="#FEFEFE" sketch:type="MSShapeGroup"></path>
                        <path d="M22.3124467,54.9148693 C21.3195894,54.9048937 21.4962599,55.0220711 21.4777846,54.0682042 C21.4759082,53.9713187 21.4787949,53.8743359 21.4802383,53.7774018 C21.4822591,53.6392512 21.5582774,53.5769642 21.6886152,53.56548 C22.087086,53.5303949 22.4852682,53.5149205 22.8851824,53.5478158 C23.077249,53.5635822 23.1766021,53.6457232 23.1728974,53.8496644 C23.1681823,54.1081068 23.1679899,54.3669384 23.1767945,54.6251861 C23.1839152,54.8355994 23.0819159,54.9169618 22.887588,54.9152586 C22.6959063,54.9135555 22.5041765,54.9148693 22.3124467,54.9148693" id="Fill-62" fill="#FEFEFE" sketch:type="MSShapeGroup"></path>
                        <path d="M88.5135107,54.9185141 C88.3538241,54.9185141 88.193945,54.9231856 88.0344508,54.9175895 C87.6771646,54.9049861 87.6701401,54.9031856 87.6556582,54.5245489 C87.6464205,54.2830408 87.6628751,54.0406081 87.6660987,53.7985648 C87.6682156,53.6389057 87.7522688,53.563334 87.9038725,53.5588085 C88.3026801,53.5468377 88.7014877,53.5354995 89.1003916,53.5264971 C89.2653225,53.5227988 89.3254636,53.6312171 89.3287353,53.7755964 C89.3353267,54.0659122 89.3319107,54.3564226 89.3353267,54.6468357 C89.3377324,54.8511663 89.2417953,54.9366649 89.0403948,54.925716 C88.865264,54.9161783 88.6891708,54.9237209 88.5135107,54.9237209 L88.5135107,54.9185141 Z" id="Fill-64" fill="#FEFEFE" sketch:type="MSShapeGroup"></path>
                    </g>
                    <path d="M8.88692929,57.7610144 C9.35984046,58.065347 9.58087684,58.5275002 10.1166317,58.4689619 C10.1419692,58.4661348 10.1924775,58.3053208 10.1639728,58.2624149 C9.89876249,57.8626249 9.58154362,57.5498109 8.88692929,57.7610144 M20.3463153,40.23894 C20.3948233,40.0550101 20.2573007,39.9758503 20.1354473,39.9642092 C19.789557,39.9309488 19.4790059,40.0285681 19.3321484,40.375474 C19.2564693,40.5544149 19.3751555,40.7326906 19.5475172,40.7360166 C19.9012421,40.742835 20.1444487,40.5138372 20.3463153,40.23894 M29.1199259,47.3837716 C29.2991221,47.692428 29.209274,48.0518066 29.314958,48.2377322 C29.6763509,48.8730057 30.1831009,48.5959466 30.2224407,48.0893908 C30.2591134,47.6174258 29.7045222,47.4037278 29.1199259,47.3837716 M18.1709573,43.8300648 C18.1461199,43.5696359 18.213631,43.1473952 17.916082,42.8492158 C17.7810598,42.713846 17.3688253,42.4357891 17.379327,42.8357453 C17.3966632,43.4952989 17.1184507,44.0738635 17.0812779,44.7029838 C17.0641084,44.9908525 17.0829449,45.3474039 17.3328193,45.4468525 C17.6435371,45.5707475 17.7738919,45.1969007 17.9245834,44.9840341 C18.140619,44.6787037 18.1876267,44.3196578 18.1709573,43.8300648 M23.4726632,42.1219772 C23.4718297,41.2917978 23.2272895,40.7030888 22.5178394,40.4148875 C21.8163906,40.129846 20.547015,40.4546337 20.0662692,41.0365243 C19.5665203,41.6411982 19.6557016,42.2427125 20.0919401,42.8571982 C20.4868384,43.4134783 20.5235111,44.023474 20.2944734,44.6735484 C20.129613,45.1415221 20.0384313,45.631614 20.0781045,46.1406643 C20.1037754,46.4712726 20.31431,46.6407344 20.5670183,46.7518241 C20.8840705,46.8910188 20.9910881,46.6094696 21.1319446,46.4077453 C21.7027052,45.5910363 22.2928023,44.7872989 22.8462267,43.9592814 C23.2354575,43.3772245 23.5010012,42.7394565 23.4726632,42.1219772 M18.4563376,34.7556315 C19.0852744,34.8208219 19.714378,34.8835177 20.3429814,34.9520341 C21.693537,35.099544 23.1441091,35.171719 24.196449,36.0411457 C25.1087658,36.7949926 26.033918,37.0665637 27.1362661,37.1275965 C27.7115275,37.1593602 28.445815,37.2120779 28.6973564,37.7409182 C29.1070905,38.6020298 29.7641987,39.2775484 30.2082717,40.0977497 C30.4601465,40.5630626 30.4374761,40.900323 29.7767007,40.8845243 C29.0630833,40.8673952 28.5885052,41.2214521 28.477987,41.907614 C28.3022914,42.9978897 28.5698354,43.9968656 29.3756347,44.7882967 C29.7797012,45.1852595 30.3331256,45.3923055 30.7920345,44.9720604 C31.2619452,44.5418372 30.8080371,44.1807956 30.4946522,43.8738022 C30.2844509,43.6680867 30.2184401,43.4520604 30.4049708,43.2175746 C30.5706647,43.0093646 30.8077037,43.0534346 31.017905,43.1392464 C32.4123011,43.7079991 32.7285199,45.1677978 31.6515093,46.1702661 C31.2211051,46.5708875 31.0029025,47.0228963 30.902386,47.5946425 C30.6261738,49.1661961 30.8520444,50.8016096 30.2741159,52.3367431 C30.1675984,52.6192902 30.3212903,52.8491195 30.681683,52.9232902 C31.6025012,53.1125418 32.577495,52.3495484 32.5584919,51.4250757 C32.5318208,50.1279204 32.5809956,50.0811895 33.7928617,49.6858897 C34.1412524,49.5721392 34.6811746,49.608393 34.75502,49.1675265 C34.829699,48.7208394 34.9763898,48.8435702 35.2642705,48.8997803 C36.1252456,49.0677453 36.4199607,48.7848656 36.4799706,47.9121129 C36.5278118,47.2139772 36.277604,46.6202792 35.9848891,46.0199291 C35.8148611,45.6711939 35.9135441,45.371684 36.2676023,45.181102 C36.6781699,44.9600867 36.8136922,45.3202967 36.9712181,45.5502923 C37.0910712,45.725242 37.2364284,45.9919904 37.183253,46.1582923 C36.7948558,47.3717978 37.6058226,47.7892158 38.4721318,48.1906687 C38.8710308,48.3754302 39.1644124,48.636358 39.1582447,49.1287781 C39.1432423,50.2958853 38.0195573,51.6382748 36.8513651,51.8552989 C36.1125768,51.992498 35.3549521,52.1097409 34.6169973,51.99466 C33.8658737,51.8774171 33.3347863,52.1769269 32.9793945,52.7273864 C31.6311726,54.8159729 30.3189566,56.9374871 29.7972041,59.4113952 C29.5206586,60.7221873 30.0542464,61.8088044 31.0477432,62.6519554 C31.9885647,63.4505374 33.0415714,63.3613996 34.0854098,62.8673164 C34.5836585,62.6313339 35.0635708,62.348288 35.5263137,62.047614 C36.9067075,61.1509138 38.2575965,61.741951 38.6449936,63.3565768 C38.8050199,64.0237803 38.5021368,64.6573908 38.6281575,65.3106249 C38.7235065,65.2944937 38.7855167,65.3008131 38.8233563,65.2737059 C38.8895338,65.2264761 38.951044,65.1656096 38.9965515,65.0982573 C41.5629738,61.3097322 42.7191641,57.1320604 42.4577878,52.566905 C42.4364509,52.1962179 42.3127639,51.9243142 41.8683574,51.7940998 C41.2975968,51.6271326 40.9075326,51.1540035 40.5468066,50.6943449 C40.439789,50.5581435 40.2525915,50.3835265 40.4201191,50.1894521 C40.5738111,50.0113427 40.7593416,50.1204368 40.9483727,50.1924455 C41.2147499,50.294056 41.4846276,50.561137 41.7905113,50.2963842 C42.1095638,50.0201567 41.954705,49.6995265 41.8505212,49.3833864 C41.7820099,49.1753427 41.7141654,48.9621435 41.6869943,48.7461173 C41.5024639,47.2821611 40.3494408,46.2931632 39.8465247,44.988358 C39.0445594,42.9080867 37.7646821,41.154765 36.1534169,39.638091 C32.6998485,36.3870538 28.5640011,34.6423799 23.8575599,34.2691982 C22.0519293,34.1260123 20.2284626,34.1328306 18.4563376,34.7556315 M7.45235986,60.3576534 C7.35701083,60.6776184 7.60805215,60.8790101 7.74357445,61.0981961 C8.23548875,61.8944499 8.41468491,62.781172 8.20164984,63.6466074 C7.83708984,65.1268613 8.36200957,66.229277 9.37684326,67.2280867 C10.185643,68.0240079 11.0994601,68.7650495 11.6110443,69.7828175 C12.1694695,70.8940473 13.0784525,71.4583098 14.159297,71.8735659 C14.7772321,72.1110451 15.3995011,72.3390451 16.0101016,72.5941523 C16.4878469,72.793881 16.9537569,72.7945462 17.464341,72.7142223 C19.3496513,72.4178722 20.8535655,71.2911764 22.4764992,70.4402092 C23.1737807,70.0746775 23.1976179,69.2185549 22.6960354,68.5566731 C22.0794339,67.7427912 21.1752851,67.3263711 20.2346303,67.3870713 C19.0332659,67.4647344 18.2443027,66.9210932 17.4770097,66.1684105 C17.1014479,65.7998853 16.7155511,65.4391764 16.3093176,65.1050757 C14.5503614,63.6587475 12.7358961,62.3230101 10.4401849,61.803649 C9.34517138,61.5560254 8.26099294,61.2147737 7.43385681,60.3729532 C7.4058522,59.9593602 7.06312913,59.6292508 7.13164041,59.186056 C7.34584233,57.7984324 6.63189149,56.8792814 5.5915536,56.1013208 C4.80825802,55.5152726 4.76108359,54.7343186 5.41302422,53.9784761 C6.20348765,53.0618197 8.42818713,52.7270538 9.05479026,54.3257147 C9.27916052,54.898126 9.5565395,54.813312 9.90926422,54.4873602 C10.0719577,54.3368569 10.2431525,54.1880166 10.3728405,54.010905 C11.4970255,52.4761042 12.8714184,51.3575571 14.8760817,51.2566118 C15.1761311,51.2414783 15.5355235,51.0991239 15.4261722,50.7919641 C15.1749642,50.0855133 15.7173868,50.0158328 16.0982828,49.811614 C16.4873469,49.6030713 16.9019151,49.4415921 17.2918126,49.2340473 C17.6363693,49.0506162 17.8952452,48.7303186 17.7742253,48.3531457 C17.5148493,47.544253 17.2688088,46.7009357 16.5055165,46.1800779 C15.7077185,45.6356053 14.9620958,45.74287 14.4118386,46.5233252 C14.1706322,46.865242 13.9567637,47.1782223 13.4936875,47.0297147 C13.0239435,46.8788788 12.8120753,46.5239904 12.7712352,46.0294083 C12.6445477,44.4976009 13.5053561,43.5149225 15.0642793,43.4464061 C15.4348403,43.4301085 15.8319056,43.4227912 15.943424,42.987579 C16.0502749,42.5711589 15.733056,42.3271939 15.4356738,42.1149926 C15.3028186,42.0203667 15.1424588,41.9609969 14.9891003,41.8989663 C14.084118,41.5321042 13.9347601,41.2167956 14.1172901,40.2520779 C14.2671481,39.4599816 14.7680639,38.7939422 14.8709142,37.9825549 C14.9250897,37.5541611 14.7628964,37.3077015 14.4466777,37.0762092 C14.1296255,36.8442179 13.8980874,36.9588 13.6412118,37.1791501 C10.7745733,39.6379247 7.96144364,42.1437628 5.70557237,45.2088744 C4.74691459,46.5115177 4.19299009,47.9390538 3.93111366,49.5230801 C3.42453028,52.5881917 3.71157753,55.4700385 5.68506899,58.0182836 C6.28350082,58.7909225 6.65056123,59.7375133 7.45235986,60.3576534 M13.3466633,12.5097497 C14.256313,13.6928219 15.0989517,14.7904149 15.7092188,16.037347 C15.9640941,16.5580385 16.2249703,17.0767344 16.4513409,17.6098985 C17.1084491,19.1580035 16.7345542,19.7262573 15.0221057,19.933137 C11.5165287,20.3567081 8.87676095,19.0118241 6.96677994,16.10287 C4.90127333,12.9569357 4.00129187,9.480393 3.97962164,5.75023982 C3.97828809,5.50461182 3.92944672,5.21225295 4.16765259,5.06158337 C4.32301149,4.96346521 4.4725361,5.14506696 4.58738833,5.2584849 C6.1681485,6.81972779 8.15030806,7.68981969 10.2121474,8.33723326 C15.4741801,9.98944333 18.8312326,13.4575046 20.3856551,18.6990101 C21.0449303,20.9218022 21.4696669,23.1958153 21.7498796,25.4966031 C21.7677159,25.6441129 21.8155571,25.7881304 21.8862354,26.0911326 C22.3394767,25.3505899 22.363814,24.6577759 22.5435103,24.0215046 C23.2913,21.3726468 24.0437572,18.7252858 24.9520733,16.125986 C25.2149499,15.3739685 25.1682756,14.6582048 25.0700928,13.8749225 C24.7483731,11.3078853 24.9535736,8.83580656 26.9192304,6.84799912 C28.3266287,5.42495317 30.0967534,4.80547834 32.0282379,4.51444989 C33.3637911,4.31322451 34.6916763,4.06194223 36.0237289,3.83726827 C38.2252579,3.46608228 39.9853809,2.35069497 41.4117823,0.668550547 C41.5501384,0.505408315 41.693662,0.346756236 41.8961954,0.116095405 C42.1690736,1.85095755 42.1145646,3.50582845 42.0558883,5.15321575 C41.9722079,7.49840613 41.7725083,9.81183282 40.9665424,12.0730407 C39.7740128,15.41887 35.8763713,18.4801567 31.866878,18.4468963 C30.922556,18.4389138 29.9775671,18.451719 29.0339118,18.4241129 C28.4686521,18.407649 28.1027585,18.2450057 28.2709529,17.5111151 C28.9125585,14.7134171 29.7690328,12.0243142 31.765028,9.84509322 C32.0434071,9.54109322 32.3127848,9.22894442 32.6583416,8.83929891 C31.9948991,8.82932079 31.6623444,9.20632735 31.2941171,9.50999475 C29.4793184,11.0067125 28.470319,13.0462398 27.6133447,15.1486293 C26.0694239,18.9354915 25.0674256,22.8720254 24.5673433,26.9361129 C24.4019828,28.2809969 24.2616264,29.6208919 24.2256204,30.977916 C24.2071174,31.6805418 24.5068334,31.8777759 25.1054319,31.9509488 C29.2019394,32.4525155 32.9215516,33.9061611 36.1995911,36.4198153 C40.9458723,40.0593339 43.9640357,44.8662923 44.6776531,50.7465637 C46.1738994,63.076358 38.9333744,72.3746337 27.9950742,75.4964543 C26.0772585,76.043754 24.1622767,75.9050582 22.2342927,75.9838853 C11.6642197,76.4156053 2.61089637,68.1071589 0.655407868,59.3847869 C-0.931019896,52.3083055 0.310684466,45.7701435 4.94878115,40.0471939 C8.49353122,35.6732858 13.1186258,33.0929444 18.65337,32.1315527 C19.3684877,32.0073252 19.4748385,31.6555965 19.5091775,31.0256446 C19.682206,27.847614 19.8910737,24.6624324 19.2859741,21.5155002 C18.6303662,18.1064761 16.996764,15.2091632 14.3426605,12.9221786 C14.1027877,12.7154652 13.8809179,12.4433952 13.3466633,12.5097497" id="Logo_Mark" fill="#FEFEFE" sketch:type="MSShapeGroup"></path>
                    <text id="" sketch:type="MSTextLayer" font-family="FOT-TsukuGo Pro" font-size="12.8000002" font-weight="bold" fill="#FFFFFF">
                        <tspan x="2" y="94"></tspan>
                    </text>
                </g>
            </g>
        </g>
    </g>
</svg>